<svg width="56" height="56" viewBox="0 0 56 56" fill="none" xmlns="http://www.w3.org/2000/svg">
<g clip-path="url(#clip0_1436_17026)">
<path d="M13.0298 4.16309L12.7393 5.41343C12.7789 4.97317 12.8757 4.55492 13.0298 4.16309Z" fill="black" stroke="black" stroke-width="0.440262" stroke-miterlimit="10"/>
<path d="M41.8846 42.2458H20.435C17.6731 42.2458 16.2364 42.2032 16.1249 42.1181L15.8739 41.9288V36.3066C15.8739 35.3953 15.3896 34.5412 14.6059 34.0745L12.4839 32.8065C10.8065 31.7983 10.4983 29.8876 10.2518 28.3511L10.2077 28.0869C9.95678 26.5592 9.75425 24.9963 9.55613 23.4906C9.39764 22.2755 9.23035 21.0207 9.04544 19.7924C8.9706 19.2993 8.98821 18.8106 9.09827 18.3307L12.1273 5.27253C12.3606 4.26433 12.4178 4.02218 12.4531 3.92532C13.2235 1.97936 15.0726 0.720215 17.1639 0.720215C18.5155 0.720215 19.7878 1.24853 20.7432 2.1995C21.0558 2.51208 21.3199 2.85549 21.5401 3.22971C22.3502 1.702 23.9483 0.720215 25.727 0.720215C26.9905 0.720215 28.1836 1.21331 29.0818 2.10704C29.5484 2.57372 29.9139 3.13725 30.1472 3.74482C30.9661 2.7014 32.1988 2.10704 33.5284 2.10704C34.6819 2.10704 35.765 2.55611 36.575 3.37059C36.6983 3.49387 36.8172 3.63035 36.9272 3.77123C37.1342 4.03539 37.3059 4.31716 37.4424 4.61654C38.0455 3.95174 38.9128 3.53349 39.8814 3.53349H40.577C41.2066 3.53349 41.8538 3.69639 42.4525 4.00457C43.2538 4.41842 43.8746 5.13605 44.2048 6.02978C44.3633 6.45243 44.4425 6.89709 44.4425 7.34616V14.7073L44.2752 30.2838C44.2752 30.3146 44.2752 30.3631 44.2752 30.4115C44.2136 31.5386 44.0199 32.8197 43.0293 33.8015L42.7255 34.1009C42.3557 34.4707 42.1488 34.9286 42.1443 35.3865L42.228 38.4859C42.2896 40.7812 42.2339 41.9933 42.0607 42.1225L41.8934 42.2458H41.8846ZM17.1199 40.9998C20.5891 40.9998 37.5128 40.9998 41.0349 40.9998C40.9953 39.4105 40.8896 35.4041 40.8896 35.4041C40.8896 34.5896 41.2286 33.8191 41.8362 33.216L42.14 32.9166C42.8268 32.2386 42.9677 31.2788 43.0205 30.3411V30.275L43.1966 14.6985V7.34616C43.1922 7.04238 43.1393 6.74741 43.0337 6.46124C42.8136 5.85808 42.3997 5.38259 41.8802 5.10963C41.4576 4.8939 41.0085 4.77943 40.577 4.77943H39.8814C38.7543 4.77943 37.8386 5.69518 37.8386 6.82225H36.5926V6.41281C36.5926 5.726 36.3725 5.07881 35.9499 4.53729C35.8706 4.43603 35.7826 4.33917 35.6945 4.25112C35.1222 3.67437 34.3517 3.35739 33.5328 3.35739C32.5819 3.35739 31.7013 3.78884 31.1202 4.53729C30.6975 5.07881 30.4774 5.726 30.4774 6.41281H29.2315V5.46624C29.2315 5.07881 29.1698 4.70899 29.0509 4.35678C28.8792 3.84167 28.5887 3.375 28.2101 2.99197C27.5453 2.33157 26.6691 1.97056 25.7358 1.97056C24.2301 1.97056 22.9005 2.92593 22.425 4.35238C22.3017 4.70899 22.2401 5.08321 22.2401 5.46624V5.78323H20.9942C20.9942 5.29894 20.9061 4.82786 20.73 4.3832C20.5363 3.89451 20.2457 3.45865 19.8759 3.08442C19.1583 2.3668 18.1985 1.97056 17.1771 1.97056C15.6142 1.97056 14.2317 2.90392 13.6418 4.34798C13.5889 4.5593 13.36 5.55429 13.36 5.55429L10.331 18.6125C10.2562 18.9339 10.243 19.2685 10.2958 19.6031C10.4851 20.8446 10.6524 22.1038 10.8109 23.3277C11.009 24.8246 11.2115 26.3743 11.4581 27.8844L11.5021 28.153C11.7266 29.5662 11.9644 31.0279 13.1443 31.7367L15.2663 33.0047C16.4198 33.6959 17.1375 34.9638 17.1375 36.311V40.9998H17.1199Z" fill="#89FB0F" stroke="white" stroke-width="1.76105" stroke-miterlimit="10"/>
<path d="M25.7261 18.1326C25.7261 18.1326 30.0715 18.8062 34.1923 18.8062C38.3132 18.8062 42.6586 17.7144 42.6586 17.7144" stroke="black" stroke-width="0.880525" stroke-linecap="round" stroke-linejoin="round"/>
<path d="M12.0655 11.0752C12.0655 11.0752 8.87799 17.0496 9.64845 18.8106C10.4189 20.5717 10.4805 29.9713 11.3391 30.3587C12.1976 30.7461 12.8095 32.2738 12.8095 32.2738L16.0851 34.7349L16.6618 41.1847L41.6775 41.625V34.5632L43.5134 31.4858L43.8172 12.5149L12.0655 11.0752Z" fill="white"/>
<path d="M45 53.5693V42.4263C45 41.3929 44.1623 40.5552 43.1289 40.5552H15.049C14.0156 40.5552 13.1778 41.3929 13.1778 42.4263V53.5693C13.1778 54.6027 14.0156 55.4404 15.049 55.4404H43.1289C44.1623 55.4404 45 54.6027 45 53.5693Z" stroke="white" stroke-width="1.32079" stroke-miterlimit="10"/>
<path d="M13.8003 42.4333V53.5807C13.8003 54.2688 14.3581 54.8267 15.0462 54.8267H43.1306C43.8187 54.8267 44.3765 54.2688 44.3765 53.5807V42.4333C44.3765 41.7452 43.8187 41.1873 43.1306 41.1873H15.0462C14.3581 41.1873 13.8003 41.7452 13.8003 42.4333Z" fill="#00DF81" stroke="black" stroke-width="0.5" stroke-miterlimit="10"/>
<path d="M21.6011 5.96014C21.6011 3.72361 22.8602 1.34619 25.7219 1.34619C27.9981 1.34619 29.8428 3.16007 29.8428 5.39661V13.6691C29.8428 15.9057 27.9981 17.7195 25.7219 17.7195C24.0049 17.7195 22.9043 16.9007 22.0017 15.5843" fill="white"/>
<path d="M21.6011 5.96014C21.6011 3.72361 22.8602 1.34619 25.7219 1.34619C27.9981 1.34619 29.8428 3.16007 29.8428 5.3966V13.6691C29.8428 15.9057 27.9981 17.7195 25.7219 17.7195C24.0049 17.7195 22.9043 16.9007 22.0017 15.5843" stroke="black" stroke-width="0.5" stroke-miterlimit="10"/>
<path d="M33.5292 17.1985C31.4952 17.1985 29.8486 15.5519 29.8486 13.5179V6.41643C29.8486 4.38242 31.4952 2.73584 33.5292 2.73584C35.5632 2.73584 37.2098 4.38242 37.2098 6.41643L36.9457 13.5179C36.9457 15.5519 35.5632 17.1985 33.5292 17.1985Z" fill="white" stroke="black" stroke-width="0.5" stroke-miterlimit="10"/>
<path d="M39.9049 17.1993C38.54 17.1993 37.2104 16.0062 37.2104 14.5313L37.4306 6.82668C37.4306 5.3518 38.54 4.15869 39.9049 4.15869H40.552C41.525 4.15869 42.5552 4.71342 43.1364 5.55873C43.7263 6.41724 43.5546 7.60594 43.449 8.59213C43.2993 9.96575 43.132 11.3438 42.903 12.7042C42.564 14.6986 42.3219 17.1993 39.9092 17.1993H39.9049Z" fill="white" stroke="black" stroke-width="0.5" stroke-miterlimit="10"/>
<path d="M22.2204 12.2952H11.4824L12.7064 6.28125H22.2204V12.2952Z" fill="white"/>
<path d="M12.7222 10.3721V5.78453C12.7222 3.33227 14.7122 1.34229 17.1644 1.34229C19.6167 1.34229 21.6067 3.33227 21.6067 5.78453" fill="white"/>
<path d="M12.7222 10.3721V5.78453C12.7222 3.33227 14.7122 1.34229 17.1644 1.34229C19.6167 1.34229 21.6067 3.33227 21.6067 5.78453" stroke="black" stroke-width="0.5" stroke-miterlimit="10"/>
<path d="M18.4858 23.5669C18.772 22.1625 19.0978 16.8353 19.0978 16.8001C19.0978 16.7824 20.489 16.9057 20.5991 16.9145C22.0344 17.051 23.4872 17.2799 24.852 17.7774C25.8294 18.1341 26.7584 18.6227 27.5817 19.2567C28.5987 20.0448 29.4704 21.0134 30.1396 22.1096C30.3157 22.3958 30.4742 22.6864 30.6195 22.9901C31.205 24.2097 31.4648 26.1776 31.4472 27.5293" fill="white"/>
<path d="M18.4858 23.5669C18.772 22.1625 19.0978 16.8353 19.0978 16.8001C19.0978 16.7824 20.489 16.9057 20.5991 16.9145C22.0344 17.051 23.4872 17.2799 24.852 17.7774C25.8294 18.1341 26.7584 18.6227 27.5817 19.2567C28.5987 20.0448 29.4704 21.0134 30.1396 22.1096C30.3157 22.3958 30.4742 22.6864 30.6195 22.9901C31.205 24.2097 31.4648 26.1776 31.4472 27.5293" stroke="black" stroke-width="0.5" stroke-linecap="round" stroke-linejoin="round"/>
<path d="M11.4824 10.7398C13.5517 10.1542 15.6605 9.64354 17.6197 8.741C19.0417 8.08501 20.2304 7.32336 21.2959 6.18308C22.4758 4.91953 24.4922 5.13966 25.5884 6.5529C26.1475 7.27053 26.3853 8.19948 26.3941 9.11082C26.4073 10.5241 26.0331 12.0518 25.1526 13.1744C24.2808 14.2839 23.233 15.1644 22.0091 15.8336C20.7235 16.538 19.2178 16.8594 16.1844 16.7846" stroke="black" stroke-width="0.5" stroke-linecap="round" stroke-linejoin="round"/>
<path d="M37.209 6.82355C37.209 5.34867 38.4021 4.15556 39.877 4.15556H40.5726C41.1097 4.15556 41.6645 4.30085 42.162 4.5562C42.8444 4.90841 43.3507 5.52478 43.6148 6.2424C43.7469 6.59461 43.8129 6.96884 43.8129 7.34306V14.7042L43.6456 30.2719C43.6456 30.3027 43.6456 30.3336 43.6456 30.3732C43.584 31.5003 43.3859 32.5613 42.5846 33.3582L42.2808 33.6575C41.8229 34.1154 41.5192 34.7274 41.5192 35.3834L41.6781 40.9985M16.4995 40.9985L16.5035 36.3123C16.5035 35.1764 15.9091 34.1242 14.9317 33.5431L12.8097 32.2751C11.2952 31.3682 11.0838 29.5499 10.8285 27.987C10.3794 25.2353 10.0844 22.4529 9.66618 19.6968C9.60455 19.2874 9.61776 18.8735 9.71021 18.4685L12.7392 5.41031C12.7392 5.41031 13.0298 4.15996 13.0342 4.15116C13.6858 2.50458 15.2883 1.34229 17.1639 1.34229C18.3922 1.34229 19.5016 1.83978 20.3029 2.64106C20.73 3.06811 21.069 3.57882 21.2979 4.15116C21.496 4.65306 21.6061 5.20339 21.6061 5.78013V5.46314C21.6061 5.00527 21.681 4.5606 21.8218 4.15116C22.3678 2.51779 23.9087 1.34229 25.727 1.34229C26.8628 1.34229 27.893 1.80456 28.6415 2.5486C29.0862 2.99327 29.4296 3.53919 29.6321 4.15116C29.773 4.5606 29.8478 5.00527 29.8478 5.46314V6.4097C29.8478 5.5556 30.1384 4.77193 30.6227 4.15116C31.2963 3.28384 32.3485 2.72911 33.5284 2.72911C34.5454 2.72911 35.4656 3.13856 36.1304 3.80775C36.236 3.91342 36.3373 4.02789 36.4341 4.15116C36.9184 4.77193 37.209 5.5556 37.209 6.4097V6.81915" stroke="black" stroke-width="0.5" stroke-miterlimit="10"/>
<path d="M41.2239 40.9641H16.939L16.9346 39.2383L41.171 39.2515L41.2239 40.9641Z" fill="white"/>
</g>
<defs>
<clipPath id="clip0_1436_17026">
<rect width="56" height="56" fill="white"/>
</clipPath>
</defs>
</svg>
