<svg width="50" height="50" viewBox="0 0 50 50" fill="none" xmlns="http://www.w3.org/2000/svg">
<circle cx="25" cy="25" r="22.5918" fill="#D9D9D9" stroke="white" stroke-width="3.18365"/>
<circle cx="25" cy="25" r="21.398" stroke="black" stroke-width="0.795913"/>
<ellipse cx="21.281" cy="17.3142" rx="3.58622" ry="5.28499" transform="rotate(1.71467 21.281 17.3142)" fill="white" stroke="black" stroke-width="0.551429"/>
<path d="M24.8656 17.4216C24.8863 16.7278 24.8142 16.0381 24.6532 15.3918C24.4923 14.7455 24.2457 14.1552 23.9275 13.6547C23.6093 13.1542 23.2258 12.7533 22.7988 12.4748C22.3719 12.1963 21.9098 12.0457 21.4391 12.0316C20.9684 12.0175 20.4981 12.1402 20.0553 12.3927C19.6124 12.6451 19.2056 13.0224 18.8581 13.503C18.5105 13.9836 18.2291 14.558 18.0297 15.1935C17.8304 15.8291 17.7171 16.5132 17.6964 17.2069L21.281 17.3142L24.8656 17.4216Z" fill="black" stroke="black" stroke-width="0.551429"/>
<ellipse cx="28.4499" cy="17.5291" rx="3.58622" ry="5.28499" transform="rotate(1.71467 28.4499 17.5291)" fill="white" stroke="black" stroke-width="0.551429"/>
<ellipse cx="28.4499" cy="17.5291" rx="3.58622" ry="5.28499" transform="rotate(1.71467 28.4499 17.5291)" fill="white" stroke="black" stroke-width="0.551429"/>
<path fill-rule="evenodd" clip-rule="evenodd" d="M20.1696 20.4901C21.5595 20.5317 22.7359 18.9049 22.7972 16.8566C22.8332 15.6561 22.478 14.5772 21.8981 13.8814C21.7476 13.8481 21.5937 13.8287 21.4371 13.824C19.7502 13.7735 18.2841 15.4483 17.8332 17.7498C18.0923 19.3006 19.0248 20.4558 20.1696 20.4901Z" fill="black"/>
<path d="M21.8981 13.8814L22.0392 13.7637L21.999 13.7154L21.9377 13.7019L21.8981 13.8814ZM17.8332 17.7498L17.6528 17.7144L17.6464 17.7472L17.6519 17.7801L17.8332 17.7498ZM22.6135 16.8511C22.5838 17.8434 22.2839 18.7254 21.8327 19.3493C21.3807 19.9743 20.791 20.3248 20.1751 20.3063L20.1641 20.6738C20.938 20.697 21.6315 20.2549 22.1306 19.5648C22.6304 18.8737 22.9493 17.9182 22.981 16.8621L22.6135 16.8511ZM21.7569 13.999C22.3029 14.6541 22.6484 15.6866 22.6135 16.8511L22.981 16.8621C23.018 15.6255 22.6532 14.5002 22.0392 13.7637L21.7569 13.999ZM21.4316 14.0077C21.5766 14.0121 21.719 14.03 21.8584 14.0608L21.9377 13.7019C21.7761 13.6662 21.6109 13.6453 21.4426 13.6403L21.4316 14.0077ZM18.0136 17.7851C18.2337 16.6614 18.7003 15.6995 19.3079 15.0283C19.9152 14.3574 20.6549 13.9845 21.4316 14.0077L21.4426 13.6403C20.5325 13.613 19.6956 14.0522 19.0354 14.7815C18.3755 15.5104 17.8836 16.5367 17.6528 17.7144L18.0136 17.7851ZM20.1751 20.3063C19.1624 20.276 18.268 19.2366 18.0145 17.7195L17.6519 17.7801C17.9167 19.3645 18.8873 20.6356 20.1641 20.6738L20.1751 20.3063Z" fill="black"/>
<path fill-rule="evenodd" clip-rule="evenodd" d="M27.3394 20.7054C28.7293 20.747 29.9058 19.1203 29.9671 17.072C30.0031 15.8713 29.6478 14.7922 29.0677 14.0964C28.9176 14.0634 28.7642 14.044 28.608 14.0393C26.9204 13.9888 25.4538 15.6649 25.0035 17.9678C25.2633 19.5172 26.1954 20.6712 27.3394 20.7054Z" fill="black"/>
<path d="M29.0677 14.0964L29.2089 13.9787L29.1686 13.9305L29.1073 13.9169L29.0677 14.0964ZM25.0035 17.9678L24.8232 17.9325L24.8167 17.9653L24.8223 17.9982L25.0035 17.9678ZM29.7834 17.0665C29.7537 18.0587 29.4538 18.9407 29.0026 19.5647C28.5506 20.1896 27.9609 20.5401 27.3449 20.5217L27.3339 20.8891C28.1079 20.9123 28.8014 20.4702 29.3004 19.7801C29.8002 19.089 30.1192 18.1335 30.1508 17.0775L29.7834 17.0665ZM28.9265 14.2141C29.4727 14.8692 29.8182 15.9018 29.7834 17.0665L30.1508 17.0775C30.1879 15.8407 29.823 14.7153 29.2089 13.9787L28.9265 14.2141ZM28.6025 14.2231C28.7471 14.2274 28.8891 14.2453 29.0281 14.2759L29.1073 13.9169C28.9461 13.8814 28.7813 13.8606 28.6135 13.8556L28.6025 14.2231ZM25.1839 18.0031C25.4038 16.8787 25.8703 15.9161 26.4781 15.2444C27.0855 14.5731 27.8254 14.1998 28.6025 14.2231L28.6135 13.8556C27.703 13.8284 26.8658 14.2679 26.2055 14.9977C25.5455 15.7272 25.0536 16.7541 24.8232 17.9325L25.1839 18.0031ZM27.3449 20.5217C26.3328 20.4914 25.4389 19.4532 25.1848 17.9374L24.8223 17.9982C25.0877 19.5813 26.0579 20.8509 27.3339 20.8891L27.3449 20.5217Z" fill="black"/>
<rect x="21.3369" y="17.8223" width="2.6245" height="1.16811" rx="0.395577" transform="rotate(1.71467 21.3369 17.8223)" fill="white"/>
<rect x="28.6455" y="18.043" width="2.6245" height="1.16811" rx="0.395577" transform="rotate(1.71467 28.6455 18.043)" fill="white"/>
<path d="M32.0345 17.6364C32.0553 16.9427 31.9831 16.253 31.8222 15.6067C31.6612 14.9603 31.4146 14.3701 31.0964 13.8696C30.7783 13.3691 30.3947 12.9681 29.9678 12.6896C29.5408 12.4112 29.0788 12.2606 28.6081 12.2465C28.1373 12.2324 27.6671 12.3551 27.2242 12.6075C26.7814 12.86 26.3746 13.2373 26.027 13.7178C25.6795 14.1984 25.398 14.7729 25.1987 15.4084C24.9993 16.0439 24.8861 16.7281 24.8653 17.4218L28.4499 17.5291L32.0345 17.6364Z" fill="black" stroke="black" stroke-width="0.551429"/>
<path d="M23.4137 10.2926L20.4395 10.7471" stroke="black" stroke-width="0.503606" stroke-linecap="round"/>
<path d="M30.4192 10.9489L27.4414 10.5186" stroke="black" stroke-width="0.503606" stroke-linecap="round"/>
<path d="M27.4418 25.0596L26.4067 25.2321C25.0933 25.451 23.7641 25.561 22.4327 25.561H21.4248" stroke="black" stroke-width="0.503606" stroke-linecap="round"/>
</svg>
