<svg width="50" height="50" viewBox="0 0 50 50" fill="none" xmlns="http://www.w3.org/2000/svg">
<circle cx="25" cy="25" r="22.5918" fill="#9B69FE" stroke="white" stroke-width="3.18365"/>
<circle cx="25" cy="25" r="21.398" stroke="black" stroke-width="0.795913"/>
<path d="M28.7436 31.4714C28.9144 31.0598 28.9781 30.6085 28.9311 30.1432C28.8842 29.678 28.7274 29.2079 28.4698 28.7598C28.2122 28.3118 27.8588 27.8945 27.4298 27.5318C27.0007 27.1691 26.5045 26.8682 25.9694 26.6461C25.4343 26.424 24.8707 26.2852 24.311 26.2376C23.7512 26.1899 23.2062 26.2344 22.7071 26.3684C22.2079 26.5024 21.7644 26.7234 21.4018 27.0187C21.0392 27.3139 20.7646 27.6778 20.5938 28.0894L24.6687 29.7804L28.7436 31.4714Z" fill="black" stroke="black" stroke-width="0.551429"/>
<path d="M28.8675 31.5773C28.6966 31.1657 28.638 30.7122 28.695 30.2428C28.7519 29.7735 28.9233 29.2973 29.1993 28.8416C29.4753 28.3859 29.8505 27.9596 30.3036 27.5869C30.7566 27.2142 31.2786 26.9026 31.8398 26.6697C32.4009 26.4369 32.9902 26.2873 33.574 26.2297C34.1578 26.1721 34.7247 26.2075 35.2422 26.3339C35.7598 26.4603 36.2179 26.6752 36.5905 26.9663C36.963 27.2575 37.2427 27.6192 37.4135 28.0308L33.1405 29.804L28.8675 31.5773Z" fill="black" stroke="black" stroke-width="0.551429"/>
<mask id="path-5-inside-1_1281_2637" fill="white">
<path d="M29.158 31.5444C28.6839 32.7154 27.764 33.6501 26.6007 34.1429C25.4374 34.6356 24.126 34.6461 22.955 34.172C21.784 33.6978 20.8493 32.7779 20.3566 31.6146C19.8638 30.4514 19.8534 29.14 20.3275 27.969L24.7428 29.7567L29.158 31.5444Z"/>
</mask>
<path d="M29.158 31.5444C28.6839 32.7154 27.764 33.6501 26.6007 34.1429C25.4374 34.6356 24.126 34.6461 22.955 34.172C21.784 33.6978 20.8493 32.7779 20.3566 31.6146C19.8638 30.4514 19.8534 29.14 20.3275 27.969L24.7428 29.7567L29.158 31.5444Z" fill="#FBFCF4" stroke="black" stroke-width="1.00721" mask="url(#path-5-inside-1_1281_2637)"/>
<path d="M22.318 33.8748C22.3114 33.3735 22.4953 32.5544 22.9359 31.9762C23.3766 31.3981 24.0288 31.0186 24.7493 30.9214C25.4697 30.8242 26.1992 31.0171 26.7774 31.4578C27.3555 31.8984 27.5623 32.8383 27.6595 33.5587L27.6627 33.558L27.4315 33.7201C27.262 33.839 27.0839 33.9454 26.8989 34.0383C26.5094 34.2339 26.0921 34.3684 25.6616 34.4369L25.5756 34.4506C25.3256 34.4905 25.0728 34.5105 24.8195 34.5105L24.6538 34.5105C24.3825 34.5105 24.1118 34.4853 23.8452 34.4353C23.4849 34.3677 23.1345 34.2552 22.8022 34.1004L22.318 33.8748Z" fill="#010701"/>
<rect x="22.4575" y="30.5742" width="2.6245" height="1.16811" rx="0.395577" transform="rotate(20.3727 22.4575 30.5742)" fill="white"/>
<mask id="path-8-inside-2_1281_2637" fill="white">
<path d="M28.8559 31.5464C29.33 32.7174 30.2499 33.6521 31.4132 34.1448C32.5765 34.6376 33.8879 34.6481 35.0589 34.1739C36.2299 33.6998 37.1646 32.7799 37.6573 31.6166C38.1501 30.4533 38.1606 29.1419 37.6864 27.9709L33.2712 29.7587L28.8559 31.5464Z"/>
</mask>
<path d="M28.8559 31.5464C29.33 32.7174 30.2499 33.6521 31.4132 34.1448C32.5765 34.6376 33.8879 34.6481 35.0589 34.1739C36.2299 33.6998 37.1646 32.7799 37.6573 31.6166C38.1501 30.4533 38.1606 29.1419 37.6864 27.9709L33.2712 29.7587L28.8559 31.5464Z" fill="#FBFCF4" stroke="black" stroke-width="1.00721" mask="url(#path-8-inside-2_1281_2637)"/>
<path d="M35.6959 33.8768C35.7025 33.3754 35.5187 32.5563 35.078 31.9782C34.6373 31.4 33.9851 31.0206 33.2647 30.9234C32.5443 30.8261 31.8147 31.0191 31.2366 31.4597C30.6584 31.9004 30.4516 32.8403 30.3544 33.5607L30.3512 33.5599L30.5824 33.7221C30.752 33.841 30.93 33.9473 31.1151 34.0403C31.5045 34.2359 31.9218 34.3703 32.3523 34.4389L32.4383 34.4526C32.6884 34.4924 32.9412 34.5124 33.1944 34.5124L33.3601 34.5124C33.6314 34.5124 33.9021 34.4872 34.1687 34.4372C34.529 34.3696 34.8794 34.2571 35.2117 34.1024L35.6959 33.8768Z" fill="#010701"/>
<rect width="2.6245" height="1.16811" rx="0.395577" transform="matrix(-0.937448 0.348125 0.348125 0.937448 35.5559 30.5752)" fill="white"/>
<path d="M28.3195 26.0627L25.0603 23.5557" stroke="black" stroke-width="0.503606" stroke-linecap="round"/>
<path d="M29.5718 26.0627L32.8311 23.5557" stroke="black" stroke-width="0.503606" stroke-linecap="round"/>
<path d="M36.5599 38.2946C35.6314 37.6419 32.8756 36.2146 29.2804 35.7268C25.6852 35.239 21.9601 36.4045 20.547 37.0482" stroke="black" stroke-width="0.795913" stroke-linecap="round"/>
</svg>
