<svg width="42" height="42" viewBox="0 0 42 42" fill="none" xmlns="http://www.w3.org/2000/svg">
<g filter="url(#filter0_d_1035_1245)">
<rect x="9" y="9" width="22" height="22" rx="11" fill="white" shape-rendering="crispEdges"/>
<path d="M28 20C28 24.4183 24.4183 28 20 28C15.5817 28 12 24.4183 12 20C12 15.5817 15.5817 12 20 12C24.4183 12 28 15.5817 28 20Z" fill="#00DF82"/>
<circle cx="17.5539" cy="22.2758" r="1.55389" fill="white"/>
<path d="M24.2507 18.5514C24.6269 16.8506 23.9361 16.0002 22.1782 16.0002H16.7275L17.3942 17.0727L18.0029 18.0412L20.4686 18.0402V18.0412H21.7299C22.0815 18.0412 22.2186 18.2113 22.1413 18.5514C22.0674 18.8916 21.8547 19.0617 21.5031 19.0617H20.4686V19.0651H18.5024L19.6583 20.7582L21.5032 23.804H23.864L21.8771 20.7582C23.1639 20.7582 23.9519 19.9121 24.2507 18.5514Z" fill="white"/>
</g>
<defs>
<filter id="filter0_d_1035_1245" x="0" y="0" width="42" height="42" filterUnits="userSpaceOnUse" color-interpolation-filters="sRGB">
<feFlood flood-opacity="0" result="BackgroundImageFix"/>
<feColorMatrix in="SourceAlpha" type="matrix" values="0 0 0 0 0 0 0 0 0 0 0 0 0 0 0 0 0 0 127 0" result="hardAlpha"/>
<feOffset dx="1" dy="1"/>
<feGaussianBlur stdDeviation="5"/>
<feComposite in2="hardAlpha" operator="out"/>
<feColorMatrix type="matrix" values="0 0 0 0 0 0 0 0 0 0 0 0 0 0 0 0 0 0 0.25 0"/>
<feBlend mode="normal" in2="BackgroundImageFix" result="effect1_dropShadow_1035_1245"/>
<feBlend mode="normal" in="SourceGraphic" in2="effect1_dropShadow_1035_1245" result="shape"/>
</filter>
</defs>
</svg>
