<svg width="50" height="50" viewBox="0 0 50 50" fill="none" xmlns="http://www.w3.org/2000/svg">
<circle cx="25" cy="25" r="22.5918" fill="#29FFA5" stroke="white" stroke-width="3.18365"/>
<circle cx="25" cy="25" r="21.398" stroke="black" stroke-width="0.795913"/>
<ellipse cx="15.8894" cy="17.3142" rx="3.58622" ry="5.28499" transform="rotate(1.71467 15.8894 17.3142)" fill="white" stroke="black" stroke-width="0.551429"/>
<path d="M19.474 17.4216C19.4947 16.7278 19.4226 16.0381 19.2616 15.3918C19.1007 14.7455 18.8541 14.1552 18.5359 13.6547C18.2177 13.1542 17.8342 12.7533 17.4072 12.4748C16.9803 12.1963 16.5182 12.0457 16.0475 12.0316C15.5768 12.0175 15.1065 12.1402 14.6637 12.3927C14.2208 12.6451 13.814 13.0224 13.4665 13.503C13.1189 13.9836 12.8375 14.558 12.6381 15.1935C12.4388 15.8291 12.3255 16.5132 12.3048 17.2069L15.8894 15.3918L19.474 17.4216Z" fill="black" stroke="black" stroke-width="0.551429"/>
<ellipse cx="23.0583" cy="17.5291" rx="3.58622" ry="5.28499" transform="rotate(1.71467 23.0583 17.5291)" fill="white" stroke="black" stroke-width="0.551429"/>
<ellipse cx="23.0583" cy="17.5291" rx="3.58622" ry="5.28499" transform="rotate(1.71467 23.0583 17.5291)" fill="white" stroke="black" stroke-width="0.551429"/>
<path fill-rule="evenodd" clip-rule="evenodd" d="M14.7791 20.491C16.169 20.5327 17.3455 18.9059 17.4068 16.8576C17.4428 15.6569 17.0875 14.5779 16.5074 13.8821C16.3573 13.849 16.2039 13.8297 16.0477 13.825C14.3601 13.7745 12.8935 15.4506 12.4432 17.7534C12.703 19.3029 13.6351 20.4568 14.7791 20.491Z" fill="black"/>
<path d="M16.5074 13.8821L16.6486 13.7644L16.6084 13.7161L16.547 13.7026L16.5074 13.8821ZM12.4432 17.7534L12.2628 17.7182L12.2564 17.7509L12.262 17.7838L12.4432 17.7534ZM17.2231 16.8521C17.1934 17.8444 16.8935 18.7264 16.4423 19.3503C15.9903 19.9753 15.4006 20.3258 14.7846 20.3073L14.7736 20.6748C15.5476 20.6979 16.2411 20.2559 16.7401 19.5658C17.2399 18.8747 17.5589 17.9191 17.5905 16.8631L17.2231 16.8521ZM16.3662 13.9998C16.9124 14.6548 17.2579 15.6874 17.2231 16.8521L17.5905 16.8631C17.6276 15.6264 17.2627 14.5009 16.6486 13.7644L16.3662 13.9998ZM16.0422 14.0087C16.1868 14.013 16.3288 14.0309 16.4679 14.0616L16.547 13.7026C16.3858 13.6671 16.221 13.6463 16.0532 13.6413L16.0422 14.0087ZM12.6236 17.7887C12.8435 16.6643 13.31 15.7018 13.9178 15.03C14.5252 14.3587 15.2651 13.9855 16.0422 14.0087L16.0532 13.6413C15.1426 13.614 14.3055 14.0536 13.6452 14.7834C12.9852 15.5128 12.4933 16.5397 12.2628 17.7182L12.6236 17.7887ZM14.7846 20.3073C13.7725 20.277 12.8786 19.2388 12.6245 17.723L12.262 17.7838C12.5274 19.3669 13.4976 20.6366 14.7736 20.6748L14.7846 20.3073Z" fill="black"/>
<path fill-rule="evenodd" clip-rule="evenodd" d="M21.9469 20.7049C23.3368 20.7465 24.5133 19.1198 24.5746 17.0715C24.6105 15.8713 24.2556 14.7927 23.676 14.0969C23.526 14.0638 23.3726 14.0445 23.2165 14.0398C21.5284 13.9893 20.0613 15.6667 19.6116 17.9709C19.8722 19.5185 20.8037 20.6707 21.9469 20.7049Z" fill="black"/>
<path d="M23.676 14.0969L23.8172 13.9792L23.7769 13.9309L23.7155 13.9174L23.676 14.0969ZM19.6116 17.9709L19.4312 17.9357L19.4248 17.9685L19.4304 18.0014L19.6116 17.9709ZM24.3909 17.066C24.3612 18.0583 24.0613 18.9402 23.61 19.5642C23.1581 20.1891 22.5683 20.5396 21.9524 20.5212L21.9414 20.8886C22.7154 20.9118 23.4088 20.4697 23.9079 19.7796C24.4077 19.0885 24.7267 18.133 24.7583 17.077L24.3909 17.066ZM23.5347 14.2145C24.0805 14.8696 24.4257 15.9018 24.3909 17.066L24.7583 17.077C24.7953 15.8408 24.4308 14.7158 23.8172 13.9792L23.5347 14.2145ZM23.211 14.2236C23.3555 14.2279 23.4975 14.2458 23.6364 14.2764L23.7155 13.9174C23.5545 13.8819 23.3897 13.8611 23.222 13.8561L23.211 14.2236ZM19.792 18.0061C20.0116 16.881 20.4781 15.9178 21.086 15.2456C21.6935 14.5738 22.4337 14.2003 23.211 14.2236L23.222 13.8561C22.3112 13.8289 21.4738 14.2687 20.8133 14.9991C20.1532 15.729 19.6613 16.7566 19.4312 17.9357L19.792 18.0061ZM21.9524 20.5212C20.9411 20.4909 20.0478 19.4543 19.7929 17.9404L19.4304 18.0014C19.6966 19.5827 20.6664 20.8505 21.9414 20.8886L21.9524 20.5212Z" fill="black"/>
<rect x="15.9463" y="17.8223" width="2.6245" height="1.16811" rx="0.395577" transform="rotate(1.71467 15.9463 17.8223)" fill="white"/>
<rect x="23.2539" y="18.043" width="2.6245" height="1.16811" rx="0.395577" transform="rotate(1.71467 23.2539 18.043)" fill="white"/>
<path d="M11.6604 24.787C12.6682 25.3089 15.5909 26.3527 19.2191 26.3527C22.8472 26.3527 26.3818 24.697 27.6956 23.8691" stroke="black" stroke-width="0.795913" stroke-linecap="round"/>
<path d="M26.7132 17.4216C26.734 16.7278 26.6618 16.0381 26.5009 15.3918C26.3399 14.7455 26.0933 14.1552 25.7751 13.6547C25.457 13.1542 25.0735 12.7533 24.6465 12.4748C24.2195 12.1963 23.7575 12.0457 23.2868 12.0316C22.816 12.0175 22.3458 12.1402 21.903 12.3927C21.4601 12.6451 21.0533 13.0224 20.7057 13.503C20.3582 13.9836 20.0767 14.558 19.8774 15.1935C19.6781 15.8291 19.5648 16.5132 19.544 17.2069L23.1286 15.3918L26.7132 17.4216Z" fill="black" stroke="black" stroke-width="0.551429"/>
</svg>
