<svg width="50" height="50" viewBox="0 0 50 50" fill="none" xmlns="http://www.w3.org/2000/svg">
<circle cx="25" cy="25" r="22.5918" fill="#00DF81" stroke="white" stroke-width="3.18365"/>
<circle cx="25" cy="25" r="21.398" stroke="black" stroke-width="0.795913"/>
<path d="M36.582 24.787C35.5742 25.3089 32.6515 26.3527 29.0234 26.3527C25.3952 26.3527 21.8606 24.697 20.5469 23.8691" stroke="black" stroke-width="0.795913" stroke-linecap="round"/>
<ellipse cx="4.099" cy="6.04067" rx="4.099" ry="6.04067" transform="matrix(-0.999552 0.0299222 0.0299222 0.999552 37.8662 11.9927)" fill="white" stroke="black" stroke-width="0.630277"/>
<ellipse cx="4.099" cy="6.04067" rx="4.099" ry="6.04067" transform="matrix(-0.999552 0.0299222 0.0299222 0.999552 29.6719 12.2358)" fill="white" stroke="black" stroke-width="0.630277"/>
<ellipse cx="4.099" cy="6.04067" rx="4.099" ry="6.04067" transform="matrix(-0.999552 0.0299222 0.0299222 0.999552 29.6719 12.2358)" fill="white" stroke="black" stroke-width="0.630277"/>
<path fill-rule="evenodd" clip-rule="evenodd" d="M35.2183 19.9316C33.6296 19.9792 32.2849 18.1198 32.2149 15.7786C32.1737 14.4051 32.5804 13.1709 33.2445 12.3757C33.4151 12.3383 33.5895 12.3164 33.767 12.3111C35.6969 12.2533 37.374 14.1713 37.8876 16.8057C37.59 18.5751 36.5251 19.8925 35.2183 19.9316Z" fill="black"/>
<path d="M33.2445 12.3757L33.0832 12.2411L33.1293 12.1859L33.1995 12.1705L33.2445 12.3757ZM37.8876 16.8057L38.0938 16.7655L38.1011 16.8029L38.0948 16.8405L37.8876 16.8057ZM32.4249 15.7724C32.4588 16.9065 32.8016 17.9146 33.3173 18.6278C33.8339 19.3421 34.508 19.7427 35.212 19.7216L35.2245 20.1416C34.3399 20.1681 33.5473 19.6628 32.9769 18.874C32.4056 18.0841 32.041 16.992 32.0049 15.7849L32.4249 15.7724ZM33.4057 12.5104C32.7806 13.259 32.385 14.4401 32.4249 15.7724L32.0049 15.7849C31.9625 14.3702 32.3803 13.0829 33.0832 12.2411L33.4057 12.5104ZM33.7733 12.5211C33.6089 12.526 33.4475 12.5463 33.2895 12.5809L33.1995 12.1705C33.3826 12.1303 33.57 12.1068 33.7607 12.1011L33.7733 12.5211ZM37.6814 16.8459C37.4306 15.5596 36.8975 14.4583 36.2026 13.6897C35.5081 12.9216 34.6619 12.4945 33.7733 12.5211L33.7607 12.1011C34.802 12.0699 35.7593 12.5729 36.5142 13.4079C37.2688 14.2425 37.831 15.4174 38.0938 16.7655L37.6814 16.8459ZM35.212 19.7216C36.3681 19.687 37.3893 18.5017 37.6804 16.7708L38.0948 16.8405C37.7907 18.6484 36.6822 20.098 35.2245 20.1416L35.212 19.7216Z" fill="black"/>
<path fill-rule="evenodd" clip-rule="evenodd" d="M27.0229 20.177C25.4343 20.2246 24.0896 18.3652 24.0195 16.0241C23.9784 14.6507 24.3851 13.4165 25.049 12.6213C25.2203 12.5836 25.3955 12.5615 25.5739 12.5562C27.5023 12.4985 29.1784 14.4135 29.6934 17.0448C29.3972 18.8174 28.3314 20.1379 27.0229 20.177Z" fill="black"/>
<path d="M25.049 12.6213L24.8877 12.4867L24.9337 12.4316L25.0038 12.4161L25.049 12.6213ZM29.6934 17.0448L29.8995 17.0045L29.9069 17.0419L29.9006 17.0794L29.6934 17.0448ZM24.2295 16.0178C24.2635 17.1519 24.6063 18.16 25.122 18.8732C25.6386 19.5875 26.3127 19.9881 27.0167 19.967L27.0292 20.387C26.1446 20.4135 25.352 19.9082 24.7815 19.1194C24.2103 18.3295 23.8457 17.2374 23.8095 16.0303L24.2295 16.0178ZM25.2103 12.756C24.5852 13.5046 24.1897 14.6856 24.2295 16.0178L23.8095 16.0303C23.7672 14.6157 24.1849 13.3285 24.8877 12.4867L25.2103 12.756ZM25.5802 12.7662C25.415 12.7711 25.2529 12.7916 25.0942 12.8265L25.0038 12.4161C25.1878 12.3756 25.376 12.3519 25.5676 12.3462L25.5802 12.7662ZM29.4872 17.0852C29.2357 15.8004 28.7025 14.7006 28.0079 13.9331C27.3137 13.1661 26.4681 12.7396 25.5802 12.7662L25.5676 12.3462C26.6081 12.3151 27.5647 12.8172 28.3194 13.6511C29.0737 14.4845 29.636 15.6579 29.8995 17.0045L29.4872 17.0852ZM27.0167 19.967C28.1741 19.9324 29.1964 18.7443 29.4861 17.0102L29.9006 17.0794C29.598 18.8905 28.4886 20.3433 27.0292 20.387L27.0167 19.967Z" fill="black"/>
<rect width="2.99977" height="1.33513" rx="0.452139" transform="matrix(-0.999552 0.0299222 0.0299222 0.999552 33.8848 16.8828)" fill="white"/>
<rect width="2.99977" height="1.33513" rx="0.452139" transform="matrix(-0.999552 0.0299222 0.0299222 0.999552 25.5332 17.1313)" fill="white"/>
<path d="M35.1414 12.5623C35.5734 12.5623 36.4497 12.2537 36.499 11.0195" stroke="black" stroke-width="0.371879"/>
<path d="M26.6258 12.5623C27.0577 12.5623 27.934 12.2537 27.9834 11.0195" stroke="black" stroke-width="0.371879"/>
<path d="M36.4988 13.489C36.9308 13.489 37.8071 13.1805 37.8564 11.9463" stroke="black" stroke-width="0.371879"/>
<path d="M27.9842 13.489C28.4161 13.489 29.2924 13.1805 29.3418 11.9463" stroke="black" stroke-width="0.371879"/>
</svg>
