<svg width="56" height="56" viewBox="0 0 56 56" fill="none" xmlns="http://www.w3.org/2000/svg">
<path d="M16.8413 22.2424L16.8413 49.4428C16.8413 51.1103 15.4851 52.4664 13.8176 52.4664H3.02364C1.35614 52.4664 -4.19617e-05 51.1103 -4.19617e-05 49.4428L-4.19617e-05 22.2424C-4.19617e-05 20.5749 1.35614 19.2188 3.02364 19.2188H13.8176C15.4851 19.2188 16.8413 20.5749 16.8413 22.2424Z" fill="white"/>
<path d="M30.9536 52.6776C29.6699 52.6776 28.4118 52.2341 27.4096 51.428L26.2411 50.4855C25.9596 50.2595 25.6014 50.1315 25.2389 50.1315H13.0034V21.7669H20.3345L21.857 19.093C22.1555 18.5684 22.7824 17.4638 22.7824 17.4638C23.1876 16.7474 23.597 16.0266 24.0064 15.3102L24.113 15.1268C25.3881 12.9006 26.4884 10.9772 26.5823 8.77663C26.6377 7.42898 27.0258 5.53971 27.9342 4.26456C28.9449 2.84868 30.638 2 32.459 2C32.5529 2 32.6467 2 32.7405 2.00853C33.8664 2.06824 35.0221 2.43074 36.1821 3.09177C38.1268 4.20486 39.7858 6.28604 40.5236 8.52501C41.3254 10.9858 40.8435 13.3783 40.2933 14.9562C40.208 15.2121 40.1057 15.4722 39.9991 15.7324C39.7218 16.4019 39.3338 17.1184 38.8305 17.8861H49.3729C52.8401 17.8861 55.7444 20.5302 55.9832 23.9078C56.1111 25.6947 55.5013 27.439 54.3114 28.744C55.271 29.742 55.8808 31.047 55.9832 32.4628C56.1111 34.2327 55.4672 35.9727 54.2133 37.2265C54.128 37.3118 54.0428 37.3929 53.9575 37.4696C54.4095 38.3439 54.6483 39.3205 54.6483 40.327C54.6483 41.9945 54.0001 43.5596 52.823 44.7367C52.7463 44.8135 52.6695 44.8817 52.5928 44.9499C52.8017 45.5726 52.9126 46.2336 52.9126 46.8861C52.9126 50.0292 50.3794 52.6818 47.3855 52.6818H30.9536V52.6776Z" fill="white"/>
<path d="M52.2962 36.4637C52.036 36.7068 51.746 36.9158 51.4304 37.0906C52.3175 37.918 52.8378 39.0865 52.8378 40.3233C52.8378 41.5601 52.3772 42.6177 51.5413 43.4493C51.2044 43.7905 50.812 43.9654 50.3941 44.1104C50.3131 44.1402 50.232 44.1701 50.1468 44.1957C50.3472 44.4302 50.5263 44.7117 50.667 45.0145C50.94 45.586 51.1021 46.247 51.1021 46.8824C51.1021 49.0063 49.3663 50.8657 47.3875 50.8657H30.9513C30.0813 50.8657 29.2241 50.5629 28.546 50.017L27.3775 49.0788C26.7719 48.5926 26.0127 48.3239 25.2366 48.3239H14.8179V23.58H20.4729C21.0358 23.58 21.5604 23.2772 21.8419 22.7868L23.4326 19.9891C23.7354 19.4603 24.0339 18.9315 24.3324 18.4027C24.6139 17.9037 24.8997 17.4005 25.1854 16.9015C25.3133 16.6712 25.4455 16.4409 25.5777 16.2106L25.6844 16.0272C27.0149 13.6987 28.2773 11.4981 28.3925 8.85398C28.4394 7.73663 28.772 6.20986 29.4075 5.31854C30.1154 4.32486 31.3564 3.75339 32.6529 3.81736C33.4888 3.86 34.3758 4.14574 35.2842 4.66604C36.8281 5.54883 38.2056 7.28457 38.7984 9.08428C39.4423 11.0631 39.0372 13.0419 38.5809 14.3555C38.5041 14.5858 38.4145 14.8118 38.325 15.0336C37.8004 16.3044 36.73 17.8739 35.1478 19.6949H49.3748C51.8953 19.6949 54.0021 21.6012 54.1769 24.0321C54.2707 25.3925 53.776 26.7231 52.8165 27.6827C52.3047 28.1945 51.6948 28.574 51.0253 28.8043C52.744 29.299 54.0447 30.7874 54.1769 32.5914C54.2665 33.8367 53.8144 35.0564 52.9316 35.9392C52.7354 36.1354 52.5222 36.3145 52.2962 36.4637Z" fill="white" stroke="black" stroke-width="0.5" stroke-miterlimit="10"/>
<path d="M13.8211 21.0312H3.02283C2.35627 21.0312 1.81592 21.5716 1.81592 22.2382V49.4428C1.81592 50.1093 2.35627 50.6497 3.02283 50.6497H13.8211C14.4876 50.6497 15.028 50.1093 15.028 49.4428V22.2382C15.028 21.5716 14.4876 21.0312 13.8211 21.0312Z" fill="#00DF81" stroke="black" stroke-width="0.5" stroke-miterlimit="10"/>
<path d="M51.0283 28.8047H43.2964" stroke="black" stroke-width="0.5" stroke-linecap="round" stroke-linejoin="round"/>
<path d="M51.4404 37.0781H43.7085" stroke="black" stroke-width="0.5" stroke-linecap="round" stroke-linejoin="round"/>
<path d="M50.1475 44.1953H42.4155" stroke="black" stroke-width="0.5" stroke-linecap="round" stroke-linejoin="round"/>
</svg>
